<svg width="20" height="20" viewBox="0 0 20 20" fill="none" xmlns="http://www.w3.org/2000/svg">
<path d="M15.5787 4.42128C15.7785 4.62103 15.8907 4.89196 15.8907 5.17447C15.8907 5.45697 15.7785 5.7279 15.5787 5.92766C15.379 6.12742 15.108 6.23964 14.8255 6.23964C14.543 6.23964 14.2721 6.12742 14.0723 5.92766C14.0248 5.87675 13.9808 5.82273 13.9404 5.76596C13.9011 5.70726 13.8683 5.64448 13.8426 5.57872C13.8163 5.51559 13.7963 5.45003 13.783 5.38298C13.7767 5.31361 13.7767 5.24383 13.783 5.17447C13.7848 4.89258 13.8962 4.62246 14.0936 4.42128C14.1436 4.37274 14.1977 4.3286 14.2553 4.28936C14.3711 4.21159 14.5013 4.15804 14.6383 4.13191C14.8068 4.10123 14.9801 4.1115 15.1438 4.16185C15.3075 4.21221 15.4566 4.30119 15.5787 4.42128ZM14.1149 10C14.1149 10.8138 13.8736 11.6094 13.4214 12.2861C12.9693 12.9628 12.3266 13.4902 11.5747 13.8017C10.8228 14.1131 9.99544 14.1946 9.19723 14.0358C8.39902 13.877 7.66581 13.4851 7.09033 12.9097C6.51486 12.3342 6.12295 11.601 5.96418 10.8028C5.8054 10.0046 5.88689 9.17719 6.19834 8.4253C6.50978 7.6734 7.0372 7.03074 7.71389 6.57859C8.39058 6.12644 9.18615 5.8851 10 5.8851C11.091 5.88623 12.137 6.32013 12.9084 7.09157C13.6799 7.86302 14.1138 8.90901 14.1149 10ZM12.8383 10C12.8383 9.43863 12.6718 8.88988 12.36 8.42312C12.0481 7.95637 11.6048 7.59258 11.0862 7.37775C10.5675 7.16293 9.99685 7.10672 9.44628 7.21624C8.8957 7.32575 8.38997 7.59608 7.99302 7.99302C7.59608 8.38996 7.32576 8.8957 7.21624 9.44627C7.10673 9.99685 7.16293 10.5675 7.37776 11.0862C7.59258 11.6048 7.95637 12.0481 8.42313 12.36C8.88988 12.6718 9.43864 12.8383 10 12.8383C10.7528 12.8383 11.4747 12.5393 12.007 12.007C12.5393 11.4747 12.8383 10.7528 12.8383 10ZM20 10C20 11.9778 19.4135 13.9112 18.3147 15.5557C17.2159 17.2002 15.6541 18.4819 13.8268 19.2388C11.9996 19.9957 9.98891 20.1937 8.0491 19.8078C6.10929 19.422 4.32746 18.4696 2.92894 17.0711C1.53041 15.6725 0.578004 13.8907 0.192152 11.9509C-0.1937 10.0111 0.00433284 8.00042 0.761209 6.17316C1.51809 4.3459 2.79981 2.78412 4.4443 1.6853C6.08879 0.58649 8.02219 0 10 0C12.6515 0.0022537 15.1937 1.05655 17.0686 2.93142C18.9435 4.8063 19.9977 7.34852 20 10ZM18.7234 10C18.7234 8.27467 18.2118 6.58809 17.2532 5.15353C16.2947 3.71898 14.9323 2.60088 13.3383 1.94062C11.7443 1.28037 9.99032 1.10762 8.29815 1.44421C6.60598 1.78081 5.05161 2.61163 3.83162 3.83162C2.61164 5.05161 1.78081 6.60597 1.44422 8.29815C1.10762 9.99032 1.28038 11.7443 1.94063 13.3383C2.60088 14.9323 3.71898 16.2947 5.15354 17.2532C6.5881 18.2118 8.27468 18.7234 10 18.7234C12.3126 18.72 14.5294 17.7999 16.1646 16.1646C17.7999 14.5294 18.72 12.3126 18.7234 10Z" fill="white"/>
</svg>
