<svg width="20" height="20" viewBox="0 0 20 20" fill="none" xmlns="http://www.w3.org/2000/svg">
<path d="M9.99781 0C4.51913 0 0.035774 4.45778 0.000227016 9.93778C-0.0175465 12.6089 1.00887 15.1289 2.88397 17.0267C4.75908 18.9289 7.26514 19.9822 9.9356 20C9.9356 20 9.99781 20 10.0023 20C15.4809 20 19.9643 15.5422 19.9998 10.0622C20.0309 4.55111 15.5742 0.0355556 9.99781 0ZM17.8537 13.6089L13.8858 10L17.8581 6.39111C18.3736 7.50667 18.6579 8.74667 18.6491 10.0533C18.6402 11.32 18.3558 12.5244 17.8537 13.6089ZM10.0511 1.34667C13.0415 1.36444 15.672 2.90667 17.2138 5.23111L9.99781 11.7911L7.50064 9.52L2.79066 5.24C4.3414 2.89778 7.01187 1.34667 10.0511 1.34667ZM2.14193 6.39111L6.10986 10L2.13304 13.6133C1.60873 12.48 1.33768 11.2311 1.34657 9.94667C1.35546 8.68 1.63983 7.47556 2.14193 6.39111ZM9.99781 18.6533H9.94005C7.62949 18.64 5.46557 17.7244 3.8393 16.08C3.4394 15.6756 3.08393 15.2356 2.77289 14.7689L7.06519 10.8711L9.56236 13.1378C9.68678 13.2489 9.84229 13.3067 9.99781 13.3067C10.1533 13.3067 10.3088 13.2489 10.4333 13.1378L12.9304 10.8711L17.2138 14.7644C15.6587 17.1022 13.0015 18.6533 9.99781 18.6533Z" fill="white"/>
</svg>
